<mxfile host="app.diagrams.net" modified="2022-03-19T04:44:07.333Z" agent="5.0 (Windows NT 10.0; Win64; x64) AppleWebKit/537.36 (KHTML, like Gecko) Chrome/99.0.4844.51 Safari/537.36 Edg/99.0.1150.39" etag="qBJRumURdKRzpSlEQZR5" version="17.1.3" type="github">
  <diagram id="C5RBs43oDa-KdzZeNtuy" name="Page-1">
    <mxGraphModel dx="1897" dy="681" grid="1" gridSize="10" guides="1" tooltips="1" connect="1" arrows="1" fold="1" page="1" pageScale="1" pageWidth="827" pageHeight="1169" math="0" shadow="0">
      <root>
        <mxCell id="WIyWlLk6GJQsqaUBKTNV-0" />
        <mxCell id="WIyWlLk6GJQsqaUBKTNV-1" parent="WIyWlLk6GJQsqaUBKTNV-0" />
        <mxCell id="JoErBuVIxRgFGpqeHT0C-1" style="edgeStyle=none;rounded=0;orthogonalLoop=1;jettySize=auto;html=1;exitX=1;exitY=0;exitDx=0;exitDy=0;entryX=0;entryY=0.5;entryDx=0;entryDy=0;" edge="1" parent="WIyWlLk6GJQsqaUBKTNV-1" source="JoErBuVIxRgFGpqeHT0C-2" target="JoErBuVIxRgFGpqeHT0C-29">
          <mxGeometry relative="1" as="geometry" />
        </mxCell>
        <mxCell id="JoErBuVIxRgFGpqeHT0C-72" style="rounded=0;orthogonalLoop=1;jettySize=auto;html=1;exitX=0.961;exitY=0.311;exitDx=0;exitDy=0;entryX=0;entryY=0.5;entryDx=0;entryDy=0;exitPerimeter=0;" edge="1" parent="WIyWlLk6GJQsqaUBKTNV-1" source="JoErBuVIxRgFGpqeHT0C-2" target="JoErBuVIxRgFGpqeHT0C-43">
          <mxGeometry relative="1" as="geometry" />
        </mxCell>
        <mxCell id="JoErBuVIxRgFGpqeHT0C-73" style="edgeStyle=none;rounded=0;orthogonalLoop=1;jettySize=auto;html=1;exitX=0.977;exitY=0.728;exitDx=0;exitDy=0;entryX=0;entryY=0.5;entryDx=0;entryDy=0;exitPerimeter=0;" edge="1" parent="WIyWlLk6GJQsqaUBKTNV-1" source="JoErBuVIxRgFGpqeHT0C-2" target="JoErBuVIxRgFGpqeHT0C-53">
          <mxGeometry relative="1" as="geometry" />
        </mxCell>
        <mxCell id="JoErBuVIxRgFGpqeHT0C-74" style="edgeStyle=none;rounded=0;orthogonalLoop=1;jettySize=auto;html=1;exitX=1;exitY=1;exitDx=0;exitDy=0;entryX=0;entryY=0.5;entryDx=0;entryDy=0;" edge="1" parent="WIyWlLk6GJQsqaUBKTNV-1" source="JoErBuVIxRgFGpqeHT0C-2" target="JoErBuVIxRgFGpqeHT0C-63">
          <mxGeometry relative="1" as="geometry" />
        </mxCell>
        <mxCell id="JoErBuVIxRgFGpqeHT0C-2" value="画像溯源分析" style="ellipse;whiteSpace=wrap;html=1;" vertex="1" parent="WIyWlLk6GJQsqaUBKTNV-1">
          <mxGeometry x="160" y="260" width="140" height="80" as="geometry" />
        </mxCell>
        <mxCell id="JoErBuVIxRgFGpqeHT0C-22" style="edgeStyle=none;rounded=0;orthogonalLoop=1;jettySize=auto;html=1;entryX=0;entryY=0.5;entryDx=0;entryDy=0;" edge="1" parent="WIyWlLk6GJQsqaUBKTNV-1" source="JoErBuVIxRgFGpqeHT0C-23" target="JoErBuVIxRgFGpqeHT0C-25">
          <mxGeometry relative="1" as="geometry" />
        </mxCell>
        <mxCell id="JoErBuVIxRgFGpqeHT0C-23" value="数据采集" style="ellipse;whiteSpace=wrap;html=1;" vertex="1" parent="WIyWlLk6GJQsqaUBKTNV-1">
          <mxGeometry x="-210" y="260" width="140" height="80" as="geometry" />
        </mxCell>
        <mxCell id="JoErBuVIxRgFGpqeHT0C-24" style="edgeStyle=none;rounded=0;orthogonalLoop=1;jettySize=auto;html=1;exitX=1;exitY=0.5;exitDx=0;exitDy=0;entryX=0;entryY=0.5;entryDx=0;entryDy=0;" edge="1" parent="WIyWlLk6GJQsqaUBKTNV-1" source="JoErBuVIxRgFGpqeHT0C-25" target="JoErBuVIxRgFGpqeHT0C-2">
          <mxGeometry relative="1" as="geometry" />
        </mxCell>
        <mxCell id="JoErBuVIxRgFGpqeHT0C-25" value="原始日志" style="rounded=0;whiteSpace=wrap;html=1;" vertex="1" parent="WIyWlLk6GJQsqaUBKTNV-1">
          <mxGeometry x="-20" y="285" width="120" height="30" as="geometry" />
        </mxCell>
        <mxCell id="JoErBuVIxRgFGpqeHT0C-26" value="" style="endArrow=none;html=1;rounded=0;" edge="1" parent="WIyWlLk6GJQsqaUBKTNV-1">
          <mxGeometry width="50" height="50" relative="1" as="geometry">
            <mxPoint x="-20.000000000000227" y="319" as="sourcePoint" />
            <mxPoint x="100" y="319" as="targetPoint" />
          </mxGeometry>
        </mxCell>
        <mxCell id="JoErBuVIxRgFGpqeHT0C-27" value="" style="endArrow=none;html=1;rounded=0;" edge="1" parent="WIyWlLk6GJQsqaUBKTNV-1">
          <mxGeometry width="50" height="50" relative="1" as="geometry">
            <mxPoint x="-20.000000000000227" y="325" as="sourcePoint" />
            <mxPoint x="100" y="325" as="targetPoint" />
          </mxGeometry>
        </mxCell>
        <mxCell id="JoErBuVIxRgFGpqeHT0C-28" value="" style="edgeStyle=none;rounded=0;orthogonalLoop=1;jettySize=auto;html=1;exitX=1;exitY=0.5;exitDx=0;exitDy=0;" edge="1" parent="WIyWlLk6GJQsqaUBKTNV-1" source="JoErBuVIxRgFGpqeHT0C-29">
          <mxGeometry relative="1" as="geometry">
            <mxPoint x="543" y="146.4999999999999" as="targetPoint" />
          </mxGeometry>
        </mxCell>
        <mxCell id="JoErBuVIxRgFGpqeHT0C-29" value="攻击者画像" style="rounded=0;whiteSpace=wrap;html=1;" vertex="1" parent="WIyWlLk6GJQsqaUBKTNV-1">
          <mxGeometry x="364" y="131.5" width="120" height="30" as="geometry" />
        </mxCell>
        <mxCell id="JoErBuVIxRgFGpqeHT0C-30" value="" style="endArrow=none;html=1;rounded=0;" edge="1" parent="WIyWlLk6GJQsqaUBKTNV-1">
          <mxGeometry width="50" height="50" relative="1" as="geometry">
            <mxPoint x="364" y="165.5" as="sourcePoint" />
            <mxPoint x="484" y="165.5" as="targetPoint" />
          </mxGeometry>
        </mxCell>
        <mxCell id="JoErBuVIxRgFGpqeHT0C-31" value="" style="endArrow=none;html=1;rounded=0;" edge="1" parent="WIyWlLk6GJQsqaUBKTNV-1">
          <mxGeometry width="50" height="50" relative="1" as="geometry">
            <mxPoint x="364" y="171.50000000000023" as="sourcePoint" />
            <mxPoint x="484" y="171.50000000000023" as="targetPoint" />
          </mxGeometry>
        </mxCell>
        <mxCell id="JoErBuVIxRgFGpqeHT0C-36" value="攻击者画像" style="text;html=1;align=center;verticalAlign=middle;resizable=0;points=[];autosize=1;strokeColor=none;fillColor=none;" vertex="1" parent="WIyWlLk6GJQsqaUBKTNV-1">
          <mxGeometry x="559" y="120.07" width="80" height="20" as="geometry" />
        </mxCell>
        <mxCell id="JoErBuVIxRgFGpqeHT0C-37" value="" style="group" vertex="1" connectable="0" parent="WIyWlLk6GJQsqaUBKTNV-1">
          <mxGeometry x="543" y="140.07" width="120" height="20" as="geometry" />
        </mxCell>
        <mxCell id="JoErBuVIxRgFGpqeHT0C-38" value="" style="endArrow=none;html=1;rounded=0;" edge="1" parent="JoErBuVIxRgFGpqeHT0C-37">
          <mxGeometry width="50" height="50" relative="1" as="geometry">
            <mxPoint x="0.6000000000000227" y="20" as="sourcePoint" />
            <mxPoint x="0.6000000000000227" as="targetPoint" />
          </mxGeometry>
        </mxCell>
        <mxCell id="JoErBuVIxRgFGpqeHT0C-39" value="" style="endArrow=none;html=1;rounded=0;" edge="1" parent="JoErBuVIxRgFGpqeHT0C-37">
          <mxGeometry width="50" height="50" relative="1" as="geometry">
            <mxPoint x="120" y="20" as="sourcePoint" />
            <mxPoint y="20" as="targetPoint" />
          </mxGeometry>
        </mxCell>
        <mxCell id="JoErBuVIxRgFGpqeHT0C-40" value="" style="endArrow=none;html=1;rounded=0;" edge="1" parent="JoErBuVIxRgFGpqeHT0C-37">
          <mxGeometry width="50" height="50" relative="1" as="geometry">
            <mxPoint x="120" as="sourcePoint" />
            <mxPoint as="targetPoint" />
          </mxGeometry>
        </mxCell>
        <mxCell id="JoErBuVIxRgFGpqeHT0C-41" value="" style="endArrow=none;html=1;rounded=0;" edge="1" parent="JoErBuVIxRgFGpqeHT0C-37">
          <mxGeometry width="50" height="50" relative="1" as="geometry">
            <mxPoint x="15.999999999999886" y="20" as="sourcePoint" />
            <mxPoint x="15.999999999999886" as="targetPoint" />
          </mxGeometry>
        </mxCell>
        <mxCell id="JoErBuVIxRgFGpqeHT0C-42" value="" style="edgeStyle=none;rounded=0;orthogonalLoop=1;jettySize=auto;html=1;exitX=1;exitY=0.5;exitDx=0;exitDy=0;" edge="1" source="JoErBuVIxRgFGpqeHT0C-43" parent="WIyWlLk6GJQsqaUBKTNV-1">
          <mxGeometry relative="1" as="geometry">
            <mxPoint x="543" y="243.9299999999999" as="targetPoint" />
          </mxGeometry>
        </mxCell>
        <mxCell id="JoErBuVIxRgFGpqeHT0C-43" value="资产画像" style="rounded=0;whiteSpace=wrap;html=1;" vertex="1" parent="WIyWlLk6GJQsqaUBKTNV-1">
          <mxGeometry x="364" y="228.93" width="120" height="30" as="geometry" />
        </mxCell>
        <mxCell id="JoErBuVIxRgFGpqeHT0C-44" value="" style="endArrow=none;html=1;rounded=0;" edge="1" parent="WIyWlLk6GJQsqaUBKTNV-1">
          <mxGeometry width="50" height="50" relative="1" as="geometry">
            <mxPoint x="364" y="262.93" as="sourcePoint" />
            <mxPoint x="484" y="262.93" as="targetPoint" />
          </mxGeometry>
        </mxCell>
        <mxCell id="JoErBuVIxRgFGpqeHT0C-45" value="" style="endArrow=none;html=1;rounded=0;" edge="1" parent="WIyWlLk6GJQsqaUBKTNV-1">
          <mxGeometry width="50" height="50" relative="1" as="geometry">
            <mxPoint x="364" y="268.93000000000023" as="sourcePoint" />
            <mxPoint x="484" y="268.93000000000023" as="targetPoint" />
          </mxGeometry>
        </mxCell>
        <mxCell id="JoErBuVIxRgFGpqeHT0C-46" value="资产画像" style="text;html=1;align=center;verticalAlign=middle;resizable=0;points=[];autosize=1;strokeColor=none;fillColor=none;" vertex="1" parent="WIyWlLk6GJQsqaUBKTNV-1">
          <mxGeometry x="569" y="217.5" width="60" height="20" as="geometry" />
        </mxCell>
        <mxCell id="JoErBuVIxRgFGpqeHT0C-47" value="" style="group" vertex="1" connectable="0" parent="WIyWlLk6GJQsqaUBKTNV-1">
          <mxGeometry x="543" y="237.5" width="120" height="20" as="geometry" />
        </mxCell>
        <mxCell id="JoErBuVIxRgFGpqeHT0C-48" value="" style="endArrow=none;html=1;rounded=0;" edge="1" parent="JoErBuVIxRgFGpqeHT0C-47">
          <mxGeometry width="50" height="50" relative="1" as="geometry">
            <mxPoint x="0.6000000000000227" y="20" as="sourcePoint" />
            <mxPoint x="0.6000000000000227" as="targetPoint" />
          </mxGeometry>
        </mxCell>
        <mxCell id="JoErBuVIxRgFGpqeHT0C-49" value="" style="endArrow=none;html=1;rounded=0;" edge="1" parent="JoErBuVIxRgFGpqeHT0C-47">
          <mxGeometry width="50" height="50" relative="1" as="geometry">
            <mxPoint x="120" y="20" as="sourcePoint" />
            <mxPoint y="20" as="targetPoint" />
          </mxGeometry>
        </mxCell>
        <mxCell id="JoErBuVIxRgFGpqeHT0C-50" value="" style="endArrow=none;html=1;rounded=0;" edge="1" parent="JoErBuVIxRgFGpqeHT0C-47">
          <mxGeometry width="50" height="50" relative="1" as="geometry">
            <mxPoint x="120" as="sourcePoint" />
            <mxPoint as="targetPoint" />
          </mxGeometry>
        </mxCell>
        <mxCell id="JoErBuVIxRgFGpqeHT0C-51" value="" style="endArrow=none;html=1;rounded=0;" edge="1" parent="JoErBuVIxRgFGpqeHT0C-47">
          <mxGeometry width="50" height="50" relative="1" as="geometry">
            <mxPoint x="15.999999999999886" y="20" as="sourcePoint" />
            <mxPoint x="15.999999999999886" as="targetPoint" />
          </mxGeometry>
        </mxCell>
        <mxCell id="JoErBuVIxRgFGpqeHT0C-52" value="" style="edgeStyle=none;rounded=0;orthogonalLoop=1;jettySize=auto;html=1;exitX=1;exitY=0.5;exitDx=0;exitDy=0;" edge="1" source="JoErBuVIxRgFGpqeHT0C-53" parent="WIyWlLk6GJQsqaUBKTNV-1">
          <mxGeometry relative="1" as="geometry">
            <mxPoint x="543" y="343.92999999999984" as="targetPoint" />
          </mxGeometry>
        </mxCell>
        <mxCell id="JoErBuVIxRgFGpqeHT0C-53" value="域名画像" style="rounded=0;whiteSpace=wrap;html=1;" vertex="1" parent="WIyWlLk6GJQsqaUBKTNV-1">
          <mxGeometry x="364" y="328.93" width="120" height="30" as="geometry" />
        </mxCell>
        <mxCell id="JoErBuVIxRgFGpqeHT0C-54" value="" style="endArrow=none;html=1;rounded=0;" edge="1" parent="WIyWlLk6GJQsqaUBKTNV-1">
          <mxGeometry width="50" height="50" relative="1" as="geometry">
            <mxPoint x="364" y="362.93000000000006" as="sourcePoint" />
            <mxPoint x="484" y="362.93000000000006" as="targetPoint" />
          </mxGeometry>
        </mxCell>
        <mxCell id="JoErBuVIxRgFGpqeHT0C-55" value="" style="endArrow=none;html=1;rounded=0;" edge="1" parent="WIyWlLk6GJQsqaUBKTNV-1">
          <mxGeometry width="50" height="50" relative="1" as="geometry">
            <mxPoint x="364" y="368.9300000000003" as="sourcePoint" />
            <mxPoint x="484" y="368.9300000000003" as="targetPoint" />
          </mxGeometry>
        </mxCell>
        <mxCell id="JoErBuVIxRgFGpqeHT0C-56" value="域名画像" style="text;html=1;align=center;verticalAlign=middle;resizable=0;points=[];autosize=1;strokeColor=none;fillColor=none;" vertex="1" parent="WIyWlLk6GJQsqaUBKTNV-1">
          <mxGeometry x="569" y="317.5" width="60" height="20" as="geometry" />
        </mxCell>
        <mxCell id="JoErBuVIxRgFGpqeHT0C-57" value="" style="group" vertex="1" connectable="0" parent="WIyWlLk6GJQsqaUBKTNV-1">
          <mxGeometry x="543" y="337.5" width="120" height="20" as="geometry" />
        </mxCell>
        <mxCell id="JoErBuVIxRgFGpqeHT0C-58" value="" style="endArrow=none;html=1;rounded=0;" edge="1" parent="JoErBuVIxRgFGpqeHT0C-57">
          <mxGeometry width="50" height="50" relative="1" as="geometry">
            <mxPoint x="0.6000000000000227" y="20" as="sourcePoint" />
            <mxPoint x="0.6000000000000227" as="targetPoint" />
          </mxGeometry>
        </mxCell>
        <mxCell id="JoErBuVIxRgFGpqeHT0C-59" value="" style="endArrow=none;html=1;rounded=0;" edge="1" parent="JoErBuVIxRgFGpqeHT0C-57">
          <mxGeometry width="50" height="50" relative="1" as="geometry">
            <mxPoint x="120" y="20" as="sourcePoint" />
            <mxPoint y="20" as="targetPoint" />
          </mxGeometry>
        </mxCell>
        <mxCell id="JoErBuVIxRgFGpqeHT0C-60" value="" style="endArrow=none;html=1;rounded=0;" edge="1" parent="JoErBuVIxRgFGpqeHT0C-57">
          <mxGeometry width="50" height="50" relative="1" as="geometry">
            <mxPoint x="120" as="sourcePoint" />
            <mxPoint as="targetPoint" />
          </mxGeometry>
        </mxCell>
        <mxCell id="JoErBuVIxRgFGpqeHT0C-61" value="" style="endArrow=none;html=1;rounded=0;" edge="1" parent="JoErBuVIxRgFGpqeHT0C-57">
          <mxGeometry width="50" height="50" relative="1" as="geometry">
            <mxPoint x="15.999999999999886" y="20" as="sourcePoint" />
            <mxPoint x="15.999999999999886" as="targetPoint" />
          </mxGeometry>
        </mxCell>
        <mxCell id="JoErBuVIxRgFGpqeHT0C-62" value="" style="edgeStyle=none;rounded=0;orthogonalLoop=1;jettySize=auto;html=1;exitX=1;exitY=0.5;exitDx=0;exitDy=0;" edge="1" source="JoErBuVIxRgFGpqeHT0C-63" parent="WIyWlLk6GJQsqaUBKTNV-1">
          <mxGeometry relative="1" as="geometry">
            <mxPoint x="543" y="453.92999999999984" as="targetPoint" />
          </mxGeometry>
        </mxCell>
        <mxCell id="JoErBuVIxRgFGpqeHT0C-63" value="攻击样本画像" style="rounded=0;whiteSpace=wrap;html=1;" vertex="1" parent="WIyWlLk6GJQsqaUBKTNV-1">
          <mxGeometry x="364" y="438.93" width="120" height="30" as="geometry" />
        </mxCell>
        <mxCell id="JoErBuVIxRgFGpqeHT0C-64" value="" style="endArrow=none;html=1;rounded=0;" edge="1" parent="WIyWlLk6GJQsqaUBKTNV-1">
          <mxGeometry width="50" height="50" relative="1" as="geometry">
            <mxPoint x="364" y="472.93000000000006" as="sourcePoint" />
            <mxPoint x="484" y="472.93000000000006" as="targetPoint" />
          </mxGeometry>
        </mxCell>
        <mxCell id="JoErBuVIxRgFGpqeHT0C-65" value="" style="endArrow=none;html=1;rounded=0;" edge="1" parent="WIyWlLk6GJQsqaUBKTNV-1">
          <mxGeometry width="50" height="50" relative="1" as="geometry">
            <mxPoint x="364" y="478.9300000000003" as="sourcePoint" />
            <mxPoint x="484" y="478.9300000000003" as="targetPoint" />
          </mxGeometry>
        </mxCell>
        <mxCell id="JoErBuVIxRgFGpqeHT0C-66" value="攻击样本画像" style="text;html=1;align=center;verticalAlign=middle;resizable=0;points=[];autosize=1;strokeColor=none;fillColor=none;" vertex="1" parent="WIyWlLk6GJQsqaUBKTNV-1">
          <mxGeometry x="554" y="427.5" width="90" height="20" as="geometry" />
        </mxCell>
        <mxCell id="JoErBuVIxRgFGpqeHT0C-67" value="" style="group" vertex="1" connectable="0" parent="WIyWlLk6GJQsqaUBKTNV-1">
          <mxGeometry x="543" y="447.5" width="120" height="20" as="geometry" />
        </mxCell>
        <mxCell id="JoErBuVIxRgFGpqeHT0C-68" value="" style="endArrow=none;html=1;rounded=0;" edge="1" parent="JoErBuVIxRgFGpqeHT0C-67">
          <mxGeometry width="50" height="50" relative="1" as="geometry">
            <mxPoint x="0.6000000000000227" y="20" as="sourcePoint" />
            <mxPoint x="0.6000000000000227" as="targetPoint" />
          </mxGeometry>
        </mxCell>
        <mxCell id="JoErBuVIxRgFGpqeHT0C-69" value="" style="endArrow=none;html=1;rounded=0;" edge="1" parent="JoErBuVIxRgFGpqeHT0C-67">
          <mxGeometry width="50" height="50" relative="1" as="geometry">
            <mxPoint x="120" y="20" as="sourcePoint" />
            <mxPoint y="20" as="targetPoint" />
          </mxGeometry>
        </mxCell>
        <mxCell id="JoErBuVIxRgFGpqeHT0C-70" value="" style="endArrow=none;html=1;rounded=0;" edge="1" parent="JoErBuVIxRgFGpqeHT0C-67">
          <mxGeometry width="50" height="50" relative="1" as="geometry">
            <mxPoint x="120" as="sourcePoint" />
            <mxPoint as="targetPoint" />
          </mxGeometry>
        </mxCell>
        <mxCell id="JoErBuVIxRgFGpqeHT0C-71" value="" style="endArrow=none;html=1;rounded=0;" edge="1" parent="JoErBuVIxRgFGpqeHT0C-67">
          <mxGeometry width="50" height="50" relative="1" as="geometry">
            <mxPoint x="15.999999999999886" y="20" as="sourcePoint" />
            <mxPoint x="15.999999999999886" as="targetPoint" />
          </mxGeometry>
        </mxCell>
      </root>
    </mxGraphModel>
  </diagram>
</mxfile>
